<svg width="193" height="194" viewBox="0 0 193 194" fill="none" xmlns="http://www.w3.org/2000/svg">
<g id="Group 47">
<rect id="Rectangle 55" y="1" width="192" height="192" fill="#D9D9D9"/>
<line id="Line 4" x1="0.353553" y1="0.646447" x2="192.354" y2="192.646" stroke="white"/>
<line id="Line 5" x1="192.354" y1="1.35355" x2="0.353565" y2="193.354" stroke="white"/>
<path id="Billede er p&#195;&#165; vej!" d="M19.7614 100V85.4545H24.8466C25.8598 85.4545 26.6955 85.6297 27.3537 85.9801C28.0118 86.3258 28.5019 86.7921 28.8239 87.3793C29.1458 87.9616 29.3068 88.608 29.3068 89.3182C29.3068 89.9432 29.1955 90.4593 28.973 90.8665C28.7552 91.2737 28.4664 91.5956 28.1065 91.8324C27.7514 92.0691 27.3655 92.2443 26.9489 92.358V92.5C27.3939 92.5284 27.8414 92.6847 28.2912 92.9688C28.741 93.2528 29.1174 93.66 29.4205 94.1903C29.7235 94.7206 29.875 95.3693 29.875 96.1364C29.875 96.8655 29.7093 97.5213 29.3778 98.1037C29.0464 98.6861 28.5232 99.1477 27.8082 99.4886C27.0933 99.8295 26.1629 100 25.017 100H19.7614ZM21.5227 98.4375H25.017C26.1676 98.4375 26.9844 98.215 27.4673 97.7699C27.955 97.3201 28.1989 96.7756 28.1989 96.1364C28.1989 95.6439 28.0734 95.1894 27.8224 94.7727C27.5715 94.3513 27.214 94.0152 26.75 93.7642C26.286 93.5085 25.7367 93.3807 25.1023 93.3807H21.5227V98.4375ZM21.5227 91.8466H24.7898C25.3201 91.8466 25.7983 91.7424 26.2244 91.5341C26.6553 91.3258 26.9962 91.0322 27.2472 90.6534C27.5028 90.2746 27.6307 89.8295 27.6307 89.3182C27.6307 88.679 27.4081 88.1368 26.9631 87.6918C26.518 87.242 25.8125 87.017 24.8466 87.017H21.5227V91.8466ZM32.5419 100V89.0909H34.218V100H32.5419ZM33.3942 87.2727C33.0675 87.2727 32.7857 87.1615 32.549 86.9389C32.317 86.7164 32.201 86.4489 32.201 86.1364C32.201 85.8239 32.317 85.5563 32.549 85.3338C32.7857 85.1113 33.0675 85 33.3942 85C33.7209 85 34.0002 85.1113 34.2322 85.3338C34.469 85.5563 34.5874 85.8239 34.5874 86.1364C34.5874 86.4489 34.469 86.7164 34.2322 86.9389C34.0002 87.1615 33.7209 87.2727 33.3942 87.2727ZM38.9641 85.4545V100H37.288V85.4545H38.9641ZM43.7102 85.4545V100H42.0341V85.4545H43.7102ZM51.354 100.227C50.3029 100.227 49.3962 99.9953 48.6339 99.5312C47.8763 99.0625 47.2915 98.4091 46.8796 97.571C46.4724 96.7282 46.2688 95.7481 46.2688 94.6307C46.2688 93.5133 46.4724 92.5284 46.8796 91.6761C47.2915 90.8191 47.8645 90.1515 48.5984 89.6733C49.337 89.1903 50.1987 88.9489 51.1836 88.9489C51.7518 88.9489 52.3129 89.0436 52.8668 89.233C53.4208 89.4223 53.9251 89.7301 54.3796 90.1562C54.8342 90.5777 55.1964 91.1364 55.4663 91.8324C55.7362 92.5284 55.8711 93.3854 55.8711 94.4034V95.1136H47.462V93.6648H54.1665C54.1665 93.0492 54.0434 92.5 53.7972 92.017C53.5558 91.5341 53.2101 91.1529 52.7603 90.8736C52.3152 90.5942 51.7897 90.4545 51.1836 90.4545C50.516 90.4545 49.9383 90.6203 49.4506 90.9517C48.9677 91.2784 48.596 91.7045 48.3356 92.2301C48.0752 92.7557 47.945 93.3191 47.945 93.9205V94.8864C47.945 95.7102 48.087 96.4086 48.3711 96.9815C48.6599 97.5497 49.06 97.983 49.5714 98.2812C50.0827 98.5748 50.677 98.7216 51.354 98.7216C51.7944 98.7216 52.1921 98.66 52.5472 98.5369C52.9071 98.4091 53.2172 98.2197 53.4776 97.9688C53.738 97.7131 53.9393 97.3958 54.0813 97.017L55.7006 97.4716C55.5302 98.0208 55.2437 98.5038 54.8413 98.9205C54.4388 99.3324 53.9416 99.6544 53.3498 99.8864C52.7579 100.114 52.0927 100.227 51.354 100.227ZM62.5401 100.227C61.631 100.227 60.8285 99.9976 60.1325 99.5384C59.4364 99.0743 58.8919 98.4209 58.4989 97.5781C58.1059 96.7306 57.9094 95.7292 57.9094 94.5739C57.9094 93.428 58.1059 92.4337 58.4989 91.5909C58.8919 90.7481 59.4388 90.0971 60.1396 89.6378C60.8403 89.1785 61.65 88.9489 62.5685 88.9489C63.2788 88.9489 63.8398 89.0672 64.2518 89.304C64.6684 89.536 64.9857 89.8011 65.2035 90.0994C65.426 90.393 65.5988 90.6345 65.7219 90.8239H65.864V85.4545H67.5401V100H65.9208V98.3239H65.7219C65.5988 98.5227 65.4237 98.7737 65.1964 99.0767C64.9691 99.375 64.6448 99.6425 64.2234 99.8793C63.802 100.111 63.2409 100.227 62.5401 100.227ZM62.7674 98.7216C63.4397 98.7216 64.0079 98.5464 64.4719 98.196C64.936 97.8409 65.2887 97.3509 65.5302 96.7259C65.7717 96.0961 65.8924 95.3693 65.8924 94.5455C65.8924 93.7311 65.774 93.0185 65.5373 92.4077C65.3005 91.7921 64.9502 91.3139 64.4862 90.973C64.0221 90.6274 63.4492 90.4545 62.7674 90.4545C62.0572 90.4545 61.4653 90.6368 60.9918 91.0014C60.5231 91.3613 60.1703 91.8513 59.9336 92.4716C59.7016 93.0871 59.5856 93.7784 59.5856 94.5455C59.5856 95.322 59.704 96.0275 59.9407 96.6619C60.1822 97.2917 60.5373 97.7936 61.006 98.1676C61.4795 98.5369 62.0666 98.7216 62.7674 98.7216ZM75.4165 100.227C74.3654 100.227 73.4587 99.9953 72.6964 99.5312C71.9388 99.0625 71.354 98.4091 70.9421 97.571C70.5349 96.7282 70.3313 95.7481 70.3313 94.6307C70.3313 93.5133 70.5349 92.5284 70.9421 91.6761C71.354 90.8191 71.927 90.1515 72.6609 89.6733C73.3995 89.1903 74.2612 88.9489 75.2461 88.9489C75.8143 88.9489 76.3754 89.0436 76.9293 89.233C77.4833 89.4223 77.9876 89.7301 78.4421 90.1562C78.8967 90.5777 79.2589 91.1364 79.5288 91.8324C79.7987 92.5284 79.9336 93.3854 79.9336 94.4034V95.1136H71.5245V93.6648H78.229C78.229 93.0492 78.1059 92.5 77.8597 92.017C77.6183 91.5341 77.2726 91.1529 76.8228 90.8736C76.3777 90.5942 75.8522 90.4545 75.2461 90.4545C74.5785 90.4545 74.0008 90.6203 73.5131 90.9517C73.0302 91.2784 72.6585 91.7045 72.3981 92.2301C72.1377 92.7557 72.0075 93.3191 72.0075 93.9205V94.8864C72.0075 95.7102 72.1495 96.4086 72.4336 96.9815C72.7224 97.5497 73.1225 97.983 73.6339 98.2812C74.1452 98.5748 74.7395 98.7216 75.4165 98.7216C75.8569 98.7216 76.2546 98.66 76.6097 98.5369C76.9696 98.4091 77.2797 98.2197 77.5401 97.9688C77.8005 97.7131 78.0018 97.3958 78.1438 97.017L79.7631 97.4716C79.5927 98.0208 79.3062 98.5038 78.9038 98.9205C78.5013 99.3324 78.0041 99.6544 77.4123 99.8864C76.8204 100.114 76.1552 100.227 75.4165 100.227ZM92.6822 100.227C91.631 100.227 90.7243 99.9953 89.962 99.5312C89.2044 99.0625 88.6197 98.4091 88.2077 97.571C87.8005 96.7282 87.5969 95.7481 87.5969 94.6307C87.5969 93.5133 87.8005 92.5284 88.2077 91.6761C88.6197 90.8191 89.1926 90.1515 89.9265 89.6733C90.6651 89.1903 91.5269 88.9489 92.5117 88.9489C93.0799 88.9489 93.641 89.0436 94.195 89.233C94.7489 89.4223 95.2532 89.7301 95.7077 90.1562C96.1623 90.5777 96.5245 91.1364 96.7944 91.8324C97.0643 92.5284 97.1992 93.3854 97.1992 94.4034V95.1136H88.7901V93.6648H95.4947C95.4947 93.0492 95.3716 92.5 95.1254 92.017C94.8839 91.5341 94.5382 91.1529 94.0884 90.8736C93.6433 90.5942 93.1178 90.4545 92.5117 90.4545C91.8441 90.4545 91.2665 90.6203 90.7788 90.9517C90.2958 91.2784 89.9241 91.7045 89.6637 92.2301C89.4033 92.7557 89.2731 93.3191 89.2731 93.9205V94.8864C89.2731 95.7102 89.4151 96.4086 89.6992 96.9815C89.988 97.5497 90.3881 97.983 90.8995 98.2812C91.4109 98.5748 92.0051 98.7216 92.6822 98.7216C93.1225 98.7216 93.5202 98.66 93.8754 98.5369C94.2352 98.4091 94.5453 98.2197 94.8058 97.9688C95.0662 97.7131 95.2674 97.3958 95.4094 97.017L97.0288 97.4716C96.8583 98.0208 96.5719 98.5038 96.1694 98.9205C95.7669 99.3324 95.2698 99.6544 94.6779 99.8864C94.0861 100.114 93.4208 100.227 92.6822 100.227ZM99.7489 100V89.0909H101.368V90.7386H101.482C101.681 90.1989 102.041 89.7609 102.561 89.4247C103.082 89.0885 103.669 88.9205 104.323 88.9205C104.446 88.9205 104.6 88.9228 104.784 88.9276C104.969 88.9323 105.109 88.9394 105.203 88.9489V90.6534C105.147 90.6392 105.016 90.6179 104.813 90.5895C104.614 90.5563 104.403 90.5398 104.181 90.5398C103.65 90.5398 103.177 90.651 102.76 90.8736C102.348 91.0914 102.022 91.3944 101.78 91.7827C101.543 92.1662 101.425 92.6042 101.425 93.0966V100H99.7489ZM112.815 104.091V89.0909H114.435V90.8239H114.634C114.757 90.6345 114.927 90.393 115.145 90.0994C115.367 89.8011 115.685 89.536 116.097 89.304C116.513 89.0672 117.077 88.9489 117.787 88.9489C118.705 88.9489 119.515 89.1785 120.216 89.6378C120.917 90.0971 121.464 90.7481 121.857 91.5909C122.25 92.4337 122.446 93.428 122.446 94.5739C122.446 95.7292 122.25 96.7306 121.857 97.5781C121.464 98.4209 120.919 99.0743 120.223 99.5384C119.527 99.9976 118.724 100.227 117.815 100.227C117.115 100.227 116.554 100.111 116.132 99.8793C115.711 99.6425 115.386 99.375 115.159 99.0767C114.932 98.7737 114.757 98.5227 114.634 98.3239H114.491V104.091H112.815ZM114.463 94.5455C114.463 95.3693 114.584 96.0961 114.825 96.7259C115.067 97.3509 115.42 97.8409 115.884 98.196C116.348 98.5464 116.916 98.7216 117.588 98.7216C118.289 98.7216 118.874 98.5369 119.342 98.1676C119.816 97.7936 120.171 97.2917 120.408 96.6619C120.649 96.0275 120.77 95.322 120.77 94.5455C120.77 93.7784 120.652 93.0871 120.415 92.4716C120.183 91.8513 119.83 91.3613 119.357 91.0014C118.888 90.6368 118.298 90.4545 117.588 90.4545C116.906 90.4545 116.333 90.6274 115.869 90.973C115.405 91.3139 115.055 91.7921 114.818 92.4077C114.581 93.0185 114.463 93.7311 114.463 94.5455ZM128.213 100.256C127.522 100.256 126.894 100.125 126.331 99.8651C125.768 99.5999 125.32 99.2188 124.989 98.7216C124.657 98.2197 124.491 97.6136 124.491 96.9034C124.491 96.2784 124.615 95.7718 124.861 95.3835C125.107 94.9905 125.436 94.6828 125.848 94.4602C126.26 94.2377 126.714 94.072 127.212 93.9631C127.714 93.8494 128.218 93.7595 128.724 93.6932C129.387 93.608 129.925 93.544 130.337 93.5014C130.753 93.4541 131.056 93.3759 131.246 93.267C131.44 93.1581 131.537 92.9687 131.537 92.6989V92.642C131.537 91.9413 131.345 91.3968 130.962 91.0085C130.583 90.6203 130.008 90.4261 129.236 90.4261C128.436 90.4261 127.808 90.6013 127.354 90.9517C126.899 91.3021 126.58 91.6761 126.395 92.0739L124.804 91.5057C125.088 90.8428 125.467 90.3267 125.94 89.9574C126.419 89.5833 126.939 89.3229 127.503 89.1761C128.071 89.0246 128.63 88.9489 129.179 88.9489C129.529 88.9489 129.932 88.9915 130.386 89.0767C130.846 89.1572 131.288 89.3253 131.714 89.581C132.145 89.8366 132.503 90.2225 132.787 90.7386C133.071 91.2547 133.213 91.946 133.213 92.8125V100H131.537V98.5227H131.452C131.338 98.7595 131.149 99.0128 130.884 99.2827C130.618 99.5526 130.266 99.7822 129.825 99.9716C129.385 100.161 128.848 100.256 128.213 100.256ZM128.469 98.75C129.132 98.75 129.69 98.6198 130.145 98.3594C130.604 98.099 130.95 97.7628 131.182 97.3509C131.419 96.9389 131.537 96.5057 131.537 96.0511V94.517C131.466 94.6023 131.31 94.6804 131.068 94.7514C130.831 94.8177 130.557 94.8769 130.244 94.929C129.937 94.9763 129.636 95.0189 129.342 95.0568C129.054 95.09 128.819 95.1184 128.639 95.142C128.204 95.1989 127.796 95.2912 127.418 95.419C127.044 95.5421 126.741 95.7292 126.509 95.9801C126.281 96.2263 126.168 96.5625 126.168 96.9886C126.168 97.571 126.383 98.0114 126.814 98.3097C127.25 98.6032 127.801 98.75 128.469 98.75ZM129.293 87.8693C128.81 87.8693 128.372 87.7628 127.979 87.5497C127.59 87.3366 127.28 87.0478 127.048 86.6832C126.821 86.3187 126.707 85.9091 126.707 85.4545C126.707 85 126.821 84.5833 127.048 84.2045C127.28 83.8258 127.59 83.5227 127.979 83.2955C128.372 83.0682 128.81 82.9545 129.293 82.9545C129.776 82.9545 130.209 83.0682 130.592 83.2955C130.981 83.5227 131.286 83.8258 131.509 84.2045C131.736 84.5833 131.849 85 131.849 85.4545C131.849 85.9091 131.736 86.3187 131.509 86.6832C131.286 87.0478 130.981 87.3366 130.592 87.5497C130.209 87.7628 129.776 87.8693 129.293 87.8693ZM129.293 86.7898C129.69 86.7898 130.017 86.6525 130.273 86.3778C130.528 86.1032 130.656 85.7955 130.656 85.4545C130.656 85.0994 130.528 84.7798 130.273 84.4957C130.017 84.2069 129.69 84.0625 129.293 84.0625C128.895 84.0625 128.568 84.2069 128.312 84.4957C128.057 84.7798 127.929 85.0994 127.929 85.4545C127.929 85.7955 128.057 86.1032 128.312 86.3778C128.568 86.6525 128.895 86.7898 129.293 86.7898ZM150.818 89.0909L146.784 100H145.079L141.045 89.0909H142.863L145.875 97.7841H145.988L149 89.0909H150.818ZM157.213 100.227C156.162 100.227 155.256 99.9953 154.493 99.5312C153.736 99.0625 153.151 98.4091 152.739 97.571C152.332 96.7282 152.128 95.7481 152.128 94.6307C152.128 93.5133 152.332 92.5284 152.739 91.6761C153.151 90.8191 153.724 90.1515 154.458 89.6733C155.196 89.1903 156.058 88.9489 157.043 88.9489C157.611 88.9489 158.172 89.0436 158.726 89.233C159.28 89.4223 159.784 89.7301 160.239 90.1562C160.694 90.5777 161.056 91.1364 161.326 91.8324C161.596 92.5284 161.73 93.3854 161.73 94.4034V95.1136H153.321V93.6648H160.026C160.026 93.0492 159.903 92.5 159.657 92.017C159.415 91.5341 159.069 91.1529 158.62 90.8736C158.175 90.5942 157.649 90.4545 157.043 90.4545C156.375 90.4545 155.798 90.6203 155.31 90.9517C154.827 91.2784 154.455 91.7045 154.195 92.2301C153.935 92.7557 153.804 93.3191 153.804 93.9205V94.8864C153.804 95.7102 153.946 96.4086 154.23 96.9815C154.519 97.5497 154.919 97.983 155.431 98.2812C155.942 98.5748 156.536 98.7216 157.213 98.7216C157.654 98.7216 158.051 98.66 158.407 98.5369C158.766 98.4091 159.077 98.2197 159.337 97.9688C159.597 97.7131 159.799 97.3958 159.941 97.017L161.56 97.4716C161.39 98.0208 161.103 98.5038 160.701 98.9205C160.298 99.3324 159.801 99.6544 159.209 99.8864C158.617 100.114 157.952 100.227 157.213 100.227ZM164.28 89.0909H165.956V100.795C165.956 101.468 165.84 102.05 165.608 102.543C165.381 103.035 165.035 103.416 164.571 103.686C164.112 103.956 163.532 104.091 162.831 104.091C162.775 104.091 162.718 104.091 162.661 104.091C162.604 104.091 162.547 104.091 162.49 104.091V102.528C162.547 102.528 162.599 102.528 162.647 102.528C162.694 102.528 162.746 102.528 162.803 102.528C163.314 102.528 163.688 102.377 163.925 102.074C164.162 101.776 164.28 101.349 164.28 100.795V89.0909ZM165.104 87.2727C164.777 87.2727 164.496 87.1615 164.259 86.9389C164.027 86.7164 163.911 86.4489 163.911 86.1364C163.911 85.8239 164.027 85.5563 164.259 85.3338C164.496 85.1113 164.777 85 165.104 85C165.431 85 165.71 85.1113 165.942 85.3338C166.179 85.5563 166.297 85.8239 166.297 86.1364C166.297 86.4489 166.179 86.7164 165.942 86.9389C165.71 87.1615 165.431 87.2727 165.104 87.2727ZM171.242 85.4545L171.1 95.9091H169.452L169.31 85.4545H171.242ZM170.276 100.114C169.926 100.114 169.625 99.9882 169.374 99.7372C169.123 99.4863 168.998 99.1856 168.998 98.8352C168.998 98.4848 169.123 98.1842 169.374 97.9332C169.625 97.6823 169.926 97.5568 170.276 97.5568C170.627 97.5568 170.927 97.6823 171.178 97.9332C171.429 98.1842 171.555 98.4848 171.555 98.8352C171.555 99.0672 171.496 99.2803 171.377 99.4744C171.263 99.6686 171.11 99.8248 170.915 99.9432C170.726 100.057 170.513 100.114 170.276 100.114Z" fill="#000342"/>
</g>
</svg>
